<?xml version="1.0" standalone="no"?><!DOCTYPE svg PUBLIC "-//W3C//DTD SVG 1.1//EN" "http://www.w3.org/Graphics/SVG/1.1/DTD/svg11.dtd"><svg t="1705921987396" class="icon" viewBox="0 0 1024 1024" version="1.1" xmlns="http://www.w3.org/2000/svg" p-id="30337" xmlns:xlink="http://www.w3.org/1999/xlink" width="128" height="128"><path d="M416 608v224H192v-224z m64-64H128v352h352z" fill="#262626" p-id="30338"></path><path d="M363.84 656h-128v128h128zM896 832h-64v64h64zM736 832h-64v64h64zM416 192v224H192V192z m64-64H128v352h352z" fill="#262626" p-id="30339"></path><path d="M363.84 240h-128v128h128zM832 192v224h-224V192z m64-64H544v352h352z" fill="#262626" p-id="30340"></path><path d="M779.84 240h-128v128h128zM896 544h-64v160h-96v-160h-192v352h64v-288h64v160h224v-64z" fill="#262626" p-id="30341"></path></svg>